<mxfile host="app.diagrams.net" agent="Mozilla/5.0 (Macintosh; Intel Mac OS X 10_15_7) AppleWebKit/537.36 (KHTML, like Gecko) Chrome/116.0.0.0 Safari/537.36" version="26.0.11" pages="2">
  <diagram name="Нотация Мартина" id="VKjNn3UDxBksTHzOqmWI">
    <mxGraphModel dx="3438" dy="2373" grid="1" gridSize="10" guides="1" tooltips="1" connect="1" arrows="1" fold="1" page="1" pageScale="1" pageWidth="1169" pageHeight="827" background="none" math="0" shadow="1">
      <root>
        <mxCell id="0" />
        <mxCell id="1" parent="0" />
        <mxCell id="KQowMHmqPOxlC-veJMMu-18" value="Заказ" style="swimlane;childLayout=stackLayout;horizontal=1;startSize=50;horizontalStack=0;rounded=1;fontSize=14;fontStyle=0;strokeWidth=2;resizeParent=0;resizeLast=1;shadow=0;dashed=0;align=center;arcSize=4;whiteSpace=wrap;html=1;fillColor=#60a917;strokeColor=#2D7600;fontColor=#ffffff;perimeterSpacing=1;" parent="1" vertex="1">
          <mxGeometry x="240" y="160" width="160" height="200" as="geometry">
            <mxRectangle x="240" y="160" width="80" height="50" as="alternateBounds" />
          </mxGeometry>
        </mxCell>
        <mxCell id="KQowMHmqPOxlC-veJMMu-19" value="&lt;div&gt;*Номер заказа&lt;/div&gt;Пользователь&lt;div&gt;Товар&lt;/div&gt;&lt;div&gt;Статус&lt;/div&gt;&lt;div&gt;Способ оплаты&lt;/div&gt;&lt;div&gt;Стоимость&lt;/div&gt;&lt;div&gt;Дата заказа&lt;/div&gt;&lt;div&gt;Категория товара&lt;/div&gt;" style="align=left;strokeColor=none;fillColor=none;spacingLeft=4;fontSize=12;verticalAlign=top;resizable=0;rotatable=0;part=1;html=1;" parent="KQowMHmqPOxlC-veJMMu-18" vertex="1">
          <mxGeometry y="50" width="160" height="150" as="geometry" />
        </mxCell>
        <mxCell id="y9fBlutGgC-ElLWvcRke-1" value="&lt;font style=&quot;font-size: 16px;&quot;&gt;&lt;b&gt;&lt;u&gt;Пользователь&lt;/u&gt;:&lt;/b&gt;&lt;/font&gt;&lt;div&gt;&lt;span style=&quot;color: rgb(8, 8, 8); font-family: &amp;quot;SB Sans Text&amp;quot;, SBSansText, sans-serif; letter-spacing: -0.32px; white-space-collapse: preserve;&quot;&gt;&lt;font style=&quot;font-size: 16px;&quot;&gt;*Идентификатор пользователя Имя&lt;/font&gt;&lt;/span&gt;&lt;/div&gt;&lt;div&gt;&lt;span style=&quot;color: rgb(8, 8, 8); font-family: &amp;quot;SB Sans Text&amp;quot;, SBSansText, sans-serif; letter-spacing: -0.32px; white-space-collapse: preserve;&quot;&gt;&lt;font style=&quot;font-size: 16px;&quot;&gt;Фамилия&lt;/font&gt;&lt;/span&gt;&lt;/div&gt;&lt;div&gt;&lt;span style=&quot;color: rgb(8, 8, 8); font-family: &amp;quot;SB Sans Text&amp;quot;, SBSansText, sans-serif; letter-spacing: -0.32px; white-space-collapse: preserve;&quot;&gt;&lt;font style=&quot;font-size: 16px;&quot;&gt;Email&lt;/font&gt;&lt;/span&gt;&lt;/div&gt;&lt;div&gt;&lt;span style=&quot;color: rgb(8, 8, 8); font-family: &amp;quot;SB Sans Text&amp;quot;, SBSansText, sans-serif; letter-spacing: -0.32px; white-space-collapse: preserve;&quot;&gt;&lt;font style=&quot;font-size: 16px;&quot;&gt;Телефон&lt;/font&gt;&lt;/span&gt;&lt;/div&gt;&lt;div&gt;&lt;span style=&quot;color: rgb(8, 8, 8); font-family: &amp;quot;SB Sans Text&amp;quot;, SBSansText, sans-serif; letter-spacing: -0.32px; white-space-collapse: preserve;&quot;&gt;&lt;font style=&quot;font-size: 16px;&quot;&gt;Пароль&lt;/font&gt;&lt;/span&gt;&lt;/div&gt;&lt;div&gt;&lt;span style=&quot;color: rgb(8, 8, 8); font-family: &amp;quot;SB Sans Text&amp;quot;, SBSansText, sans-serif; letter-spacing: -0.32px; white-space-collapse: preserve;&quot;&gt;&lt;font style=&quot;font-size: 16px;&quot;&gt;Адрес доставки&lt;/font&gt;&lt;/span&gt;&lt;br&gt;&lt;/div&gt;" style="text;strokeColor=#d6b656;fillColor=#fff2cc;spacingLeft=4;spacingRight=4;overflow=hidden;rotatable=0;points=[[0,0.5],[1,0.5]];portConstraint=eastwest;fontSize=12;whiteSpace=wrap;html=1;strokeWidth=2;" parent="1" vertex="1">
          <mxGeometry x="-50" y="-310" width="260" height="320" as="geometry" />
        </mxCell>
        <mxCell id="y9fBlutGgC-ElLWvcRke-2" value="&lt;div&gt;&lt;span style=&quot;color: rgb(8, 8, 8); font-family: &amp;quot;SB Sans Text&amp;quot;, SBSansText, sans-serif; font-size: 16px; letter-spacing: -0.32px; white-space-collapse: preserve;&quot;&gt;&lt;b&gt;&lt;u&gt;Товар&lt;/u&gt;&lt;/b&gt;:&lt;/span&gt;&lt;/div&gt;&lt;div&gt;&lt;span style=&quot;color: rgb(8, 8, 8); font-family: &amp;quot;SB Sans Text&amp;quot;, SBSansText, sans-serif; font-size: 16px; letter-spacing: -0.32px; white-space-collapse: preserve;&quot;&gt;*Артикул &lt;/span&gt;&lt;/div&gt;&lt;div&gt;&lt;span style=&quot;color: rgb(8, 8, 8); font-family: &amp;quot;SB Sans Text&amp;quot;, SBSansText, sans-serif; font-size: 16px; letter-spacing: -0.32px; white-space-collapse: preserve;&quot;&gt;Название&lt;/span&gt;&lt;/div&gt;&lt;div&gt;&lt;span style=&quot;color: rgb(8, 8, 8); font-family: &amp;quot;SB Sans Text&amp;quot;, SBSansText, sans-serif; font-size: 16px; letter-spacing: -0.32px; white-space-collapse: preserve;&quot;&gt;Цена&lt;/span&gt;&lt;/div&gt;&lt;div&gt;&lt;span style=&quot;color: rgb(8, 8, 8); font-family: &amp;quot;SB Sans Text&amp;quot;, SBSansText, sans-serif; font-size: 16px; letter-spacing: -0.32px; white-space-collapse: preserve;&quot;&gt;Наличие&lt;/span&gt;&lt;/div&gt;&lt;div&gt;&lt;span style=&quot;color: rgb(8, 8, 8); font-family: &amp;quot;SB Sans Text&amp;quot;, SBSansText, sans-serif; font-size: 16px; letter-spacing: -0.32px; white-space-collapse: preserve;&quot;&gt;Категория (одежда, амуниция, аксессуары, полезные мелочи)&lt;/span&gt;&lt;br&gt;&lt;/div&gt;" style="text;strokeColor=#d6b656;fillColor=#fff2cc;spacingLeft=4;spacingRight=4;overflow=hidden;rotatable=0;points=[[0,0.5],[1,0.5]];portConstraint=eastwest;fontSize=12;whiteSpace=wrap;html=1;strokeWidth=2;" parent="1" vertex="1">
          <mxGeometry x="240" y="-310" width="260" height="320" as="geometry" />
        </mxCell>
        <mxCell id="y9fBlutGgC-ElLWvcRke-3" value="&lt;div&gt;&lt;span style=&quot;color: rgb(8, 8, 8); font-family: &amp;quot;SB Sans Text&amp;quot;, SBSansText, sans-serif; letter-spacing: -0.32px; white-space-collapse: preserve;&quot;&gt;&lt;font style=&quot;font-size: 16px;&quot;&gt;&lt;u&gt;&lt;b&gt;Заказ&lt;/b&gt;&lt;/u&gt;:&lt;/font&gt;&lt;/span&gt;&lt;/div&gt;&lt;div&gt;&lt;span style=&quot;color: rgb(8, 8, 8); font-family: &amp;quot;SB Sans Text&amp;quot;, SBSansText, sans-serif; letter-spacing: -0.32px; white-space-collapse: preserve;&quot;&gt;&lt;font style=&quot;font-size: 16px;&quot;&gt;*Номер заказа&lt;/font&gt;&lt;/span&gt;&lt;/div&gt;&lt;div&gt;&lt;span style=&quot;color: rgb(8, 8, 8); font-family: &amp;quot;SB Sans Text&amp;quot;, SBSansText, sans-serif; letter-spacing: -0.32px; white-space-collapse: preserve;&quot;&gt;&lt;font style=&quot;font-size: 16px;&quot;&gt;Дата заказа&lt;/font&gt;&lt;/span&gt;&lt;/div&gt;&lt;div&gt;&lt;span style=&quot;color: rgb(8, 8, 8); font-family: &amp;quot;SB Sans Text&amp;quot;, SBSansText, sans-serif; letter-spacing: -0.32px; white-space-collapse: preserve;&quot;&gt;&lt;font style=&quot;font-size: 16px;&quot;&gt;Статус заказа&lt;/font&gt;&lt;/span&gt;&lt;/div&gt;&lt;div&gt;&lt;span style=&quot;color: rgb(8, 8, 8); font-family: &amp;quot;SB Sans Text&amp;quot;, SBSansText, sans-serif; letter-spacing: -0.32px; white-space-collapse: preserve;&quot;&gt;&lt;font style=&quot;font-size: 16px;&quot;&gt;Общая стоимость&lt;/font&gt;&lt;/span&gt;&lt;/div&gt;&lt;div&gt;&lt;span style=&quot;color: rgb(8, 8, 8); font-family: &amp;quot;SB Sans Text&amp;quot;, SBSansText, sans-serif; letter-spacing: -0.32px; white-space-collapse: preserve;&quot;&gt;&lt;font style=&quot;font-size: 16px;&quot;&gt;Способ оплаты&lt;/font&gt;&lt;/span&gt;&lt;br&gt;&lt;/div&gt;" style="text;strokeColor=#d6b656;fillColor=#fff2cc;spacingLeft=4;spacingRight=4;overflow=hidden;rotatable=0;points=[[0,0.5],[1,0.5]];portConstraint=eastwest;fontSize=12;whiteSpace=wrap;html=1;strokeWidth=2;" parent="1" vertex="1">
          <mxGeometry x="530" y="-310" width="260" height="320" as="geometry" />
        </mxCell>
        <mxCell id="y9fBlutGgC-ElLWvcRke-4" value="&lt;div&gt;&lt;font style=&quot;font-size: 17px;&quot; face=&quot;SB Sans Text, SBSansText, sans-serif&quot; color=&quot;#080808&quot;&gt;&lt;span style=&quot;letter-spacing: -0.32px; white-space-collapse: preserve;&quot;&gt;&lt;b&gt;&lt;u&gt;Категоряи товара&lt;/u&gt;&lt;/b&gt;:&lt;/span&gt;&lt;/font&gt;&lt;/div&gt;&lt;div&gt;&lt;br&gt;&lt;/div&gt;&lt;div&gt;&lt;span style=&quot;color: rgb(8, 8, 8); font-family: &amp;quot;SB Sans Text&amp;quot;, SBSansText, sans-serif; letter-spacing: -0.32px; white-space-collapse: preserve;&quot;&gt;&lt;font style=&quot;font-size: 17px;&quot;&gt;*Название категории ?&lt;/font&gt;&lt;/span&gt;&lt;font face=&quot;SB Sans Text, SBSansText, sans-serif&quot; color=&quot;#080808&quot;&gt;&lt;span style=&quot;font-size: 16px; letter-spacing: -0.32px; white-space-collapse: preserve;&quot;&gt;&lt;br&gt;&lt;/span&gt;&lt;/font&gt;&lt;/div&gt;&lt;div&gt;&lt;font face=&quot;SB Sans Text, SBSansText, sans-serif&quot; color=&quot;#080808&quot;&gt;&lt;span style=&quot;font-size: 17px; letter-spacing: -0.32px; white-space-collapse: preserve;&quot;&gt;Описание категории&lt;/span&gt;&lt;/font&gt;&lt;/div&gt;&lt;div&gt;&lt;span style=&quot;color: rgb(8, 8, 8); font-family: &amp;quot;SB Sans Text&amp;quot;, SBSansText, sans-serif; letter-spacing: -0.32px; white-space-collapse: preserve;&quot;&gt;&lt;font style=&quot;font-size: 17px;&quot;&gt;&lt;br&gt;&lt;/font&gt;&lt;/span&gt;&lt;/div&gt;&lt;div&gt;&lt;font face=&quot;SB Sans Text, SBSansText, sans-serif&quot; color=&quot;#080808&quot;&gt;&lt;span style=&quot;font-size: 17px; letter-spacing: -0.32px; white-space-collapse: preserve;&quot;&gt;тапа категория &lt;/span&gt;&lt;/font&gt;&lt;/div&gt;&lt;div&gt;&lt;font face=&quot;SB Sans Text, SBSansText, sans-serif&quot; color=&quot;#080808&quot;&gt;&lt;span style=&quot;font-size: 17px; letter-spacing: -0.32px; white-space-collapse: preserve;&quot;&gt;1- одежда&lt;/span&gt;&lt;/font&gt;&lt;/div&gt;&lt;div&gt;&lt;font face=&quot;SB Sans Text, SBSansText, sans-serif&quot; color=&quot;#080808&quot;&gt;&lt;span style=&quot;font-size: 17px; letter-spacing: -0.32px; white-space-collapse: preserve;&quot;&gt;2- амуниция &lt;/span&gt;&lt;/font&gt;&lt;/div&gt;&lt;div&gt;&lt;font face=&quot;SB Sans Text, SBSansText, sans-serif&quot; color=&quot;#080808&quot;&gt;&lt;span style=&quot;font-size: 17px; letter-spacing: -0.32px; white-space-collapse: preserve;&quot;&gt;3 - аксессуары&lt;/span&gt;&lt;/font&gt;&lt;/div&gt;&lt;div&gt;&lt;font face=&quot;SB Sans Text, SBSansText, sans-serif&quot; color=&quot;#080808&quot;&gt;&lt;span style=&quot;font-size: 17px; letter-spacing: -0.32px; white-space-collapse: preserve;&quot;&gt;4 полезные молочи&lt;/span&gt;&lt;/font&gt;&lt;/div&gt;" style="text;strokeColor=#d6b656;fillColor=#fff2cc;spacingLeft=4;spacingRight=4;overflow=hidden;rotatable=0;points=[[0,0.5],[1,0.5]];portConstraint=eastwest;fontSize=12;whiteSpace=wrap;html=1;strokeWidth=2;" parent="1" vertex="1">
          <mxGeometry x="1110" y="-310" width="260" height="320" as="geometry" />
        </mxCell>
        <mxCell id="y9fBlutGgC-ElLWvcRke-5" value="&lt;div&gt;&lt;font style=&quot;font-size: 16px;&quot; face=&quot;SB Sans Text, SBSansText, sans-serif&quot; color=&quot;#080808&quot;&gt;&lt;span style=&quot;letter-spacing: -0.32px; white-space-collapse: preserve;&quot;&gt;&lt;u&gt;&lt;b&gt;Доставка&lt;/b&gt;&lt;/u&gt;:&lt;/span&gt;&lt;/font&gt;&lt;/div&gt;&lt;div&gt;&lt;font style=&quot;font-size: 16px;&quot; face=&quot;SB Sans Text, SBSansText, sans-serif&quot; color=&quot;#080808&quot;&gt;&lt;span style=&quot;letter-spacing: -0.32px; white-space-collapse: preserve;&quot;&gt;*Идентификатор заказаз&lt;/span&gt;&lt;/font&gt;&lt;/div&gt;&lt;div&gt;&lt;font style=&quot;font-size: 16px;&quot;&gt;&lt;span style=&quot;text-wrap: nowrap;&quot;&gt;Статус доставки&lt;/span&gt;&lt;br style=&quot;padding: 0px; margin: 0px; text-wrap: nowrap; box-shadow: none !important;&quot;&gt;&lt;span style=&quot;text-wrap: nowrap;&quot;&gt;Сумма&lt;/span&gt;&lt;br style=&quot;padding: 0px; margin: 0px; text-wrap: nowrap; box-shadow: none !important;&quot;&gt;&lt;span style=&quot;text-wrap: nowrap;&quot;&gt;Дата доставки&lt;/span&gt;&lt;br style=&quot;padding: 0px; margin: 0px; text-wrap: nowrap; box-shadow: none !important;&quot;&gt;&lt;span style=&quot;text-wrap: nowrap;&quot;&gt;Индекс&lt;/span&gt;&lt;br style=&quot;padding: 0px; margin: 0px; text-wrap: nowrap; box-shadow: none !important;&quot;&gt;&lt;span style=&quot;text-wrap: nowrap;&quot;&gt;Город&lt;/span&gt;&lt;br style=&quot;padding: 0px; margin: 0px; text-wrap: nowrap; box-shadow: none !important;&quot;&gt;&lt;span style=&quot;text-wrap: nowrap;&quot;&gt;Улица&lt;/span&gt;&lt;br style=&quot;padding: 0px; margin: 0px; text-wrap: nowrap; box-shadow: none !important;&quot;&gt;&lt;span style=&quot;text-wrap: nowrap;&quot;&gt;Дом&lt;/span&gt;&lt;/font&gt;&lt;font face=&quot;SB Sans Text, SBSansText, sans-serif&quot; color=&quot;#080808&quot;&gt;&lt;span style=&quot;font-size: 17px; letter-spacing: -0.32px; white-space-collapse: preserve;&quot;&gt;&lt;br&gt;&lt;/span&gt;&lt;/font&gt;&lt;/div&gt;" style="text;strokeColor=#d6b656;fillColor=#fff2cc;spacingLeft=4;spacingRight=4;overflow=hidden;rotatable=0;points=[[0,0.5],[1,0.5]];portConstraint=eastwest;fontSize=12;whiteSpace=wrap;html=1;strokeWidth=2;" parent="1" vertex="1">
          <mxGeometry x="1400" y="-310" width="260" height="320" as="geometry" />
        </mxCell>
        <mxCell id="y9fBlutGgC-ElLWvcRke-6" value="&lt;div&gt;&lt;font style=&quot;font-size: 16px;&quot; face=&quot;SB Sans Text, SBSansText, sans-serif&quot; color=&quot;#080808&quot;&gt;&lt;span style=&quot;letter-spacing: -0.32px; white-space-collapse: preserve;&quot;&gt;&lt;b&gt;&lt;u&gt;Cпособ оплаты&lt;/u&gt;&lt;/b&gt;:&lt;/span&gt;&lt;/font&gt;&lt;/div&gt;&lt;div&gt;&lt;span style=&quot;color: rgb(8, 8, 8); font-family: &amp;quot;SB Sans Text&amp;quot;, SBSansText, sans-serif; letter-spacing: -0.32px; white-space-collapse: preserve;&quot;&gt;&lt;font style=&quot;font-size: 16px;&quot;&gt;*Идентификатор способа оплаты, название способа оплаты (оплата картой или оплата наличными)&lt;/font&gt;&lt;/span&gt;&lt;font face=&quot;SB Sans Text, SBSansText, sans-serif&quot; color=&quot;#080808&quot;&gt;&lt;span style=&quot;font-size: 17px; letter-spacing: -0.32px; white-space-collapse: preserve;&quot;&gt;&lt;br&gt;&lt;/span&gt;&lt;/font&gt;&lt;/div&gt;" style="text;strokeColor=#d6b656;fillColor=#fff2cc;spacingLeft=4;spacingRight=4;overflow=hidden;rotatable=0;points=[[0,0.5],[1,0.5]];portConstraint=eastwest;fontSize=12;whiteSpace=wrap;html=1;strokeWidth=2;" parent="1" vertex="1">
          <mxGeometry x="1690" y="-310" width="260" height="320" as="geometry" />
        </mxCell>
        <mxCell id="C_cZ0qnlKg0yZVJx-HnL-3" value="&lt;div&gt;&lt;font face=&quot;SB Sans Text, SBSansText, sans-serif&quot; color=&quot;#080808&quot;&gt;&lt;span style=&quot;font-size: 16px; letter-spacing: -0.32px; white-space-collapse: preserve;&quot;&gt;&lt;b style=&quot;&quot;&gt;&lt;u&gt;Товаров в заказе:&lt;/u&gt;&lt;/b&gt;&lt;/span&gt;&lt;/font&gt;&lt;/div&gt;&lt;div&gt;&lt;font face=&quot;SB Sans Text, SBSansText, sans-serif&quot; color=&quot;#080808&quot;&gt;&lt;span style=&quot;font-size: 16px; letter-spacing: -0.32px; white-space-collapse: preserve;&quot;&gt;*Артикул&lt;/span&gt;&lt;/font&gt;&lt;/div&gt;&lt;div&gt;&lt;font face=&quot;SB Sans Text, SBSansText, sans-serif&quot; color=&quot;#080808&quot;&gt;&lt;span style=&quot;font-size: 16px; letter-spacing: -0.32px; white-space-collapse: preserve;&quot;&gt;*Номер заказа&lt;/span&gt;&lt;/font&gt;&lt;/div&gt;&lt;div&gt;&lt;font face=&quot;SB Sans Text, SBSansText, sans-serif&quot; color=&quot;#080808&quot;&gt;&lt;span style=&quot;font-size: 16px; letter-spacing: -0.32px; white-space-collapse: preserve;&quot;&gt;Количество&lt;/span&gt;&lt;/font&gt;&lt;/div&gt;" style="text;strokeColor=#d6b656;fillColor=#fff2cc;spacingLeft=4;spacingRight=4;overflow=hidden;rotatable=0;points=[[0,0.5],[1,0.5]];portConstraint=eastwest;fontSize=12;whiteSpace=wrap;html=1;strokeWidth=2;" parent="1" vertex="1">
          <mxGeometry x="820" y="-310" width="260" height="320" as="geometry" />
        </mxCell>
        <mxCell id="3cQMoN85R-NzwvbNMWjj-1" value="Assets" style="childLayout=tableLayout;recursiveResize=0;strokeColor=#82b366;fillColor=#d5e8d4;shadow=1;" parent="1" vertex="1">
          <mxGeometry x="1350" y="50" width="280" height="160" as="geometry" />
        </mxCell>
        <mxCell id="3cQMoN85R-NzwvbNMWjj-2" style="shape=tableRow;horizontal=0;startSize=0;swimlaneHead=0;swimlaneBody=0;top=0;left=0;bottom=0;right=0;dropTarget=0;collapsible=0;recursiveResize=0;expand=0;fontStyle=0;strokeColor=inherit;fillColor=#ffffff;" parent="3cQMoN85R-NzwvbNMWjj-1" vertex="1">
          <mxGeometry width="280" height="33" as="geometry" />
        </mxCell>
        <mxCell id="3cQMoN85R-NzwvbNMWjj-3" value="Номер заказа" style="connectable=0;recursiveResize=0;strokeColor=inherit;fillColor=#A7C942;align=center;fontStyle=1;fontColor=#FFFFFF;html=1;" parent="3cQMoN85R-NzwvbNMWjj-2" vertex="1">
          <mxGeometry width="93" height="33" as="geometry">
            <mxRectangle width="93" height="33" as="alternateBounds" />
          </mxGeometry>
        </mxCell>
        <mxCell id="3cQMoN85R-NzwvbNMWjj-4" value="Категория" style="connectable=0;recursiveResize=0;strokeColor=inherit;fillColor=#A7C942;align=center;fontStyle=1;fontColor=#FFFFFF;html=1;" parent="3cQMoN85R-NzwvbNMWjj-2" vertex="1">
          <mxGeometry x="93" width="94" height="33" as="geometry">
            <mxRectangle width="94" height="33" as="alternateBounds" />
          </mxGeometry>
        </mxCell>
        <mxCell id="3cQMoN85R-NzwvbNMWjj-5" value="Количество" style="connectable=0;recursiveResize=0;strokeColor=inherit;fillColor=#A7C942;align=center;fontStyle=1;fontColor=#FFFFFF;html=1;" parent="3cQMoN85R-NzwvbNMWjj-2" vertex="1">
          <mxGeometry x="187" width="93" height="33" as="geometry">
            <mxRectangle width="93" height="33" as="alternateBounds" />
          </mxGeometry>
        </mxCell>
        <mxCell id="3cQMoN85R-NzwvbNMWjj-6" value="" style="shape=tableRow;horizontal=0;startSize=0;swimlaneHead=0;swimlaneBody=0;top=0;left=0;bottom=0;right=0;dropTarget=0;collapsible=0;recursiveResize=0;expand=0;fontStyle=0;strokeColor=inherit;fillColor=#ffffff;" parent="3cQMoN85R-NzwvbNMWjj-1" vertex="1">
          <mxGeometry y="33" width="280" height="32" as="geometry" />
        </mxCell>
        <mxCell id="3cQMoN85R-NzwvbNMWjj-7" value="1" style="connectable=0;recursiveResize=0;strokeColor=inherit;fillColor=inherit;align=center;whiteSpace=wrap;html=1;" parent="3cQMoN85R-NzwvbNMWjj-6" vertex="1">
          <mxGeometry width="93" height="32" as="geometry">
            <mxRectangle width="93" height="32" as="alternateBounds" />
          </mxGeometry>
        </mxCell>
        <mxCell id="3cQMoN85R-NzwvbNMWjj-8" value="1" style="connectable=0;recursiveResize=0;strokeColor=inherit;fillColor=inherit;align=center;whiteSpace=wrap;html=1;" parent="3cQMoN85R-NzwvbNMWjj-6" vertex="1">
          <mxGeometry x="93" width="94" height="32" as="geometry">
            <mxRectangle width="94" height="32" as="alternateBounds" />
          </mxGeometry>
        </mxCell>
        <mxCell id="3cQMoN85R-NzwvbNMWjj-9" value="3" style="connectable=0;recursiveResize=0;strokeColor=inherit;fillColor=inherit;align=center;whiteSpace=wrap;html=1;" parent="3cQMoN85R-NzwvbNMWjj-6" vertex="1">
          <mxGeometry x="187" width="93" height="32" as="geometry">
            <mxRectangle width="93" height="32" as="alternateBounds" />
          </mxGeometry>
        </mxCell>
        <mxCell id="3cQMoN85R-NzwvbNMWjj-10" value="" style="shape=tableRow;horizontal=0;startSize=0;swimlaneHead=0;swimlaneBody=0;top=0;left=0;bottom=0;right=0;dropTarget=0;collapsible=0;recursiveResize=0;expand=0;fontStyle=1;strokeColor=inherit;fillColor=#EAF2D3;" parent="3cQMoN85R-NzwvbNMWjj-1" vertex="1">
          <mxGeometry y="65" width="280" height="31" as="geometry" />
        </mxCell>
        <mxCell id="3cQMoN85R-NzwvbNMWjj-11" value="2" style="connectable=0;recursiveResize=0;strokeColor=inherit;fillColor=inherit;whiteSpace=wrap;html=1;" parent="3cQMoN85R-NzwvbNMWjj-10" vertex="1">
          <mxGeometry width="93" height="31" as="geometry">
            <mxRectangle width="93" height="31" as="alternateBounds" />
          </mxGeometry>
        </mxCell>
        <mxCell id="3cQMoN85R-NzwvbNMWjj-12" value="2" style="connectable=0;recursiveResize=0;strokeColor=inherit;fillColor=inherit;whiteSpace=wrap;html=1;" parent="3cQMoN85R-NzwvbNMWjj-10" vertex="1">
          <mxGeometry x="93" width="94" height="31" as="geometry">
            <mxRectangle width="94" height="31" as="alternateBounds" />
          </mxGeometry>
        </mxCell>
        <mxCell id="3cQMoN85R-NzwvbNMWjj-13" value="1" style="connectable=0;recursiveResize=0;strokeColor=inherit;fillColor=inherit;whiteSpace=wrap;html=1;" parent="3cQMoN85R-NzwvbNMWjj-10" vertex="1">
          <mxGeometry x="187" width="93" height="31" as="geometry">
            <mxRectangle width="93" height="31" as="alternateBounds" />
          </mxGeometry>
        </mxCell>
        <mxCell id="3cQMoN85R-NzwvbNMWjj-14" value="" style="shape=tableRow;horizontal=0;startSize=0;swimlaneHead=0;swimlaneBody=0;top=0;left=0;bottom=0;right=0;dropTarget=0;collapsible=0;recursiveResize=0;expand=0;fontStyle=0;strokeColor=inherit;fillColor=#ffffff;" parent="3cQMoN85R-NzwvbNMWjj-1" vertex="1">
          <mxGeometry y="96" width="280" height="33" as="geometry" />
        </mxCell>
        <mxCell id="3cQMoN85R-NzwvbNMWjj-15" value="3" style="connectable=0;recursiveResize=0;strokeColor=inherit;fillColor=inherit;fontStyle=0;align=center;whiteSpace=wrap;html=1;" parent="3cQMoN85R-NzwvbNMWjj-14" vertex="1">
          <mxGeometry width="93" height="33" as="geometry">
            <mxRectangle width="93" height="33" as="alternateBounds" />
          </mxGeometry>
        </mxCell>
        <mxCell id="3cQMoN85R-NzwvbNMWjj-16" value="3" style="connectable=0;recursiveResize=0;strokeColor=inherit;fillColor=inherit;fontStyle=0;align=center;whiteSpace=wrap;html=1;" parent="3cQMoN85R-NzwvbNMWjj-14" vertex="1">
          <mxGeometry x="93" width="94" height="33" as="geometry">
            <mxRectangle width="94" height="33" as="alternateBounds" />
          </mxGeometry>
        </mxCell>
        <mxCell id="3cQMoN85R-NzwvbNMWjj-17" value="6" style="connectable=0;recursiveResize=0;strokeColor=inherit;fillColor=inherit;fontStyle=0;align=center;whiteSpace=wrap;html=1;" parent="3cQMoN85R-NzwvbNMWjj-14" vertex="1">
          <mxGeometry x="187" width="93" height="33" as="geometry">
            <mxRectangle width="93" height="33" as="alternateBounds" />
          </mxGeometry>
        </mxCell>
        <mxCell id="3cQMoN85R-NzwvbNMWjj-18" value="" style="shape=tableRow;horizontal=0;startSize=0;swimlaneHead=0;swimlaneBody=0;top=0;left=0;bottom=0;right=0;dropTarget=0;collapsible=0;recursiveResize=0;expand=0;fontStyle=1;strokeColor=inherit;fillColor=#EAF2D3;" parent="3cQMoN85R-NzwvbNMWjj-1" vertex="1">
          <mxGeometry y="129" width="280" height="31" as="geometry" />
        </mxCell>
        <mxCell id="3cQMoN85R-NzwvbNMWjj-19" value="4" style="connectable=0;recursiveResize=0;strokeColor=inherit;fillColor=inherit;whiteSpace=wrap;html=1;" parent="3cQMoN85R-NzwvbNMWjj-18" vertex="1">
          <mxGeometry width="93" height="31" as="geometry">
            <mxRectangle width="93" height="31" as="alternateBounds" />
          </mxGeometry>
        </mxCell>
        <mxCell id="3cQMoN85R-NzwvbNMWjj-20" value="4" style="connectable=0;recursiveResize=0;strokeColor=inherit;fillColor=inherit;whiteSpace=wrap;html=1;" parent="3cQMoN85R-NzwvbNMWjj-18" vertex="1">
          <mxGeometry x="93" width="94" height="31" as="geometry">
            <mxRectangle width="94" height="31" as="alternateBounds" />
          </mxGeometry>
        </mxCell>
        <mxCell id="3cQMoN85R-NzwvbNMWjj-21" value="5" style="connectable=0;recursiveResize=0;strokeColor=inherit;fillColor=inherit;whiteSpace=wrap;html=1;" parent="3cQMoN85R-NzwvbNMWjj-18" vertex="1">
          <mxGeometry x="187" width="93" height="31" as="geometry">
            <mxRectangle width="93" height="31" as="alternateBounds" />
          </mxGeometry>
        </mxCell>
        <mxCell id="3cQMoN85R-NzwvbNMWjj-22" value="Assets" style="childLayout=tableLayout;recursiveResize=0;strokeColor=#82b366;fillColor=#d5e8d4;shadow=1;" parent="1" vertex="1">
          <mxGeometry x="1660" y="50" width="280" height="160" as="geometry" />
        </mxCell>
        <mxCell id="3cQMoN85R-NzwvbNMWjj-23" style="shape=tableRow;horizontal=0;startSize=0;swimlaneHead=0;swimlaneBody=0;top=0;left=0;bottom=0;right=0;dropTarget=0;collapsible=0;recursiveResize=0;expand=0;fontStyle=0;strokeColor=inherit;fillColor=#ffffff;" parent="3cQMoN85R-NzwvbNMWjj-22" vertex="1">
          <mxGeometry width="280" height="33" as="geometry" />
        </mxCell>
        <mxCell id="3cQMoN85R-NzwvbNMWjj-24" value="Идентификатор&lt;div&gt;категории&lt;/div&gt;" style="connectable=0;recursiveResize=0;strokeColor=inherit;fillColor=#A7C942;align=center;fontStyle=1;fontColor=#FFFFFF;html=1;" parent="3cQMoN85R-NzwvbNMWjj-23" vertex="1">
          <mxGeometry width="130" height="33" as="geometry">
            <mxRectangle width="130" height="33" as="alternateBounds" />
          </mxGeometry>
        </mxCell>
        <mxCell id="3cQMoN85R-NzwvbNMWjj-25" value="Категория" style="connectable=0;recursiveResize=0;strokeColor=inherit;fillColor=#A7C942;align=center;fontStyle=1;fontColor=#FFFFFF;html=1;" parent="3cQMoN85R-NzwvbNMWjj-23" vertex="1">
          <mxGeometry x="130" width="130" height="33" as="geometry">
            <mxRectangle width="130" height="33" as="alternateBounds" />
          </mxGeometry>
        </mxCell>
        <mxCell id="3cQMoN85R-NzwvbNMWjj-26" value="" style="connectable=0;recursiveResize=0;strokeColor=inherit;fillColor=#A7C942;align=center;fontStyle=1;fontColor=#FFFFFF;html=1;" parent="3cQMoN85R-NzwvbNMWjj-23" vertex="1">
          <mxGeometry x="260" width="20" height="33" as="geometry">
            <mxRectangle width="20" height="33" as="alternateBounds" />
          </mxGeometry>
        </mxCell>
        <mxCell id="3cQMoN85R-NzwvbNMWjj-27" value="" style="shape=tableRow;horizontal=0;startSize=0;swimlaneHead=0;swimlaneBody=0;top=0;left=0;bottom=0;right=0;dropTarget=0;collapsible=0;recursiveResize=0;expand=0;fontStyle=0;strokeColor=inherit;fillColor=#ffffff;" parent="3cQMoN85R-NzwvbNMWjj-22" vertex="1">
          <mxGeometry y="33" width="280" height="32" as="geometry" />
        </mxCell>
        <mxCell id="3cQMoN85R-NzwvbNMWjj-28" value="1" style="connectable=0;recursiveResize=0;strokeColor=inherit;fillColor=inherit;align=center;whiteSpace=wrap;html=1;" parent="3cQMoN85R-NzwvbNMWjj-27" vertex="1">
          <mxGeometry width="130" height="32" as="geometry">
            <mxRectangle width="130" height="32" as="alternateBounds" />
          </mxGeometry>
        </mxCell>
        <mxCell id="3cQMoN85R-NzwvbNMWjj-29" value="Одежда" style="connectable=0;recursiveResize=0;strokeColor=inherit;fillColor=inherit;align=center;whiteSpace=wrap;html=1;" parent="3cQMoN85R-NzwvbNMWjj-27" vertex="1">
          <mxGeometry x="130" width="130" height="32" as="geometry">
            <mxRectangle width="130" height="32" as="alternateBounds" />
          </mxGeometry>
        </mxCell>
        <mxCell id="3cQMoN85R-NzwvbNMWjj-30" value="" style="connectable=0;recursiveResize=0;strokeColor=inherit;fillColor=inherit;align=center;whiteSpace=wrap;html=1;" parent="3cQMoN85R-NzwvbNMWjj-27" vertex="1">
          <mxGeometry x="260" width="20" height="32" as="geometry">
            <mxRectangle width="20" height="32" as="alternateBounds" />
          </mxGeometry>
        </mxCell>
        <mxCell id="3cQMoN85R-NzwvbNMWjj-31" value="" style="shape=tableRow;horizontal=0;startSize=0;swimlaneHead=0;swimlaneBody=0;top=0;left=0;bottom=0;right=0;dropTarget=0;collapsible=0;recursiveResize=0;expand=0;fontStyle=1;strokeColor=inherit;fillColor=#EAF2D3;" parent="3cQMoN85R-NzwvbNMWjj-22" vertex="1">
          <mxGeometry y="65" width="280" height="31" as="geometry" />
        </mxCell>
        <mxCell id="3cQMoN85R-NzwvbNMWjj-32" value="2" style="connectable=0;recursiveResize=0;strokeColor=inherit;fillColor=inherit;whiteSpace=wrap;html=1;" parent="3cQMoN85R-NzwvbNMWjj-31" vertex="1">
          <mxGeometry width="130" height="31" as="geometry">
            <mxRectangle width="130" height="31" as="alternateBounds" />
          </mxGeometry>
        </mxCell>
        <mxCell id="3cQMoN85R-NzwvbNMWjj-33" value="Амунцияи" style="connectable=0;recursiveResize=0;strokeColor=inherit;fillColor=inherit;whiteSpace=wrap;html=1;" parent="3cQMoN85R-NzwvbNMWjj-31" vertex="1">
          <mxGeometry x="130" width="130" height="31" as="geometry">
            <mxRectangle width="130" height="31" as="alternateBounds" />
          </mxGeometry>
        </mxCell>
        <mxCell id="3cQMoN85R-NzwvbNMWjj-34" value="" style="connectable=0;recursiveResize=0;strokeColor=inherit;fillColor=inherit;whiteSpace=wrap;html=1;" parent="3cQMoN85R-NzwvbNMWjj-31" vertex="1">
          <mxGeometry x="260" width="20" height="31" as="geometry">
            <mxRectangle width="20" height="31" as="alternateBounds" />
          </mxGeometry>
        </mxCell>
        <mxCell id="3cQMoN85R-NzwvbNMWjj-35" value="" style="shape=tableRow;horizontal=0;startSize=0;swimlaneHead=0;swimlaneBody=0;top=0;left=0;bottom=0;right=0;dropTarget=0;collapsible=0;recursiveResize=0;expand=0;fontStyle=0;strokeColor=inherit;fillColor=#ffffff;" parent="3cQMoN85R-NzwvbNMWjj-22" vertex="1">
          <mxGeometry y="96" width="280" height="33" as="geometry" />
        </mxCell>
        <mxCell id="3cQMoN85R-NzwvbNMWjj-36" value="3" style="connectable=0;recursiveResize=0;strokeColor=inherit;fillColor=inherit;fontStyle=0;align=center;whiteSpace=wrap;html=1;" parent="3cQMoN85R-NzwvbNMWjj-35" vertex="1">
          <mxGeometry width="130" height="33" as="geometry">
            <mxRectangle width="130" height="33" as="alternateBounds" />
          </mxGeometry>
        </mxCell>
        <mxCell id="3cQMoN85R-NzwvbNMWjj-37" value="Аксессуары" style="connectable=0;recursiveResize=0;strokeColor=inherit;fillColor=inherit;fontStyle=0;align=center;whiteSpace=wrap;html=1;" parent="3cQMoN85R-NzwvbNMWjj-35" vertex="1">
          <mxGeometry x="130" width="130" height="33" as="geometry">
            <mxRectangle width="130" height="33" as="alternateBounds" />
          </mxGeometry>
        </mxCell>
        <mxCell id="3cQMoN85R-NzwvbNMWjj-38" value="" style="connectable=0;recursiveResize=0;strokeColor=inherit;fillColor=inherit;fontStyle=0;align=center;whiteSpace=wrap;html=1;" parent="3cQMoN85R-NzwvbNMWjj-35" vertex="1">
          <mxGeometry x="260" width="20" height="33" as="geometry">
            <mxRectangle width="20" height="33" as="alternateBounds" />
          </mxGeometry>
        </mxCell>
        <mxCell id="3cQMoN85R-NzwvbNMWjj-39" value="" style="shape=tableRow;horizontal=0;startSize=0;swimlaneHead=0;swimlaneBody=0;top=0;left=0;bottom=0;right=0;dropTarget=0;collapsible=0;recursiveResize=0;expand=0;fontStyle=1;strokeColor=inherit;fillColor=#EAF2D3;" parent="3cQMoN85R-NzwvbNMWjj-22" vertex="1">
          <mxGeometry y="129" width="280" height="31" as="geometry" />
        </mxCell>
        <mxCell id="3cQMoN85R-NzwvbNMWjj-40" value="4" style="connectable=0;recursiveResize=0;strokeColor=inherit;fillColor=inherit;whiteSpace=wrap;html=1;" parent="3cQMoN85R-NzwvbNMWjj-39" vertex="1">
          <mxGeometry width="130" height="31" as="geometry">
            <mxRectangle width="130" height="31" as="alternateBounds" />
          </mxGeometry>
        </mxCell>
        <mxCell id="3cQMoN85R-NzwvbNMWjj-41" value="Полезные мелочи" style="connectable=0;recursiveResize=0;strokeColor=inherit;fillColor=inherit;whiteSpace=wrap;html=1;" parent="3cQMoN85R-NzwvbNMWjj-39" vertex="1">
          <mxGeometry x="130" width="130" height="31" as="geometry">
            <mxRectangle width="130" height="31" as="alternateBounds" />
          </mxGeometry>
        </mxCell>
        <mxCell id="3cQMoN85R-NzwvbNMWjj-42" value="" style="connectable=0;recursiveResize=0;strokeColor=inherit;fillColor=inherit;whiteSpace=wrap;html=1;" parent="3cQMoN85R-NzwvbNMWjj-39" vertex="1">
          <mxGeometry x="260" width="20" height="31" as="geometry">
            <mxRectangle width="20" height="31" as="alternateBounds" />
          </mxGeometry>
        </mxCell>
      </root>
    </mxGraphModel>
  </diagram>
  <diagram id="_FY0AO4jmmPzxcSaNhDv" name="НФ">
    <mxGraphModel dx="794" dy="-286" grid="1" gridSize="10" guides="1" tooltips="1" connect="1" arrows="1" fold="1" page="1" pageScale="1" pageWidth="1169" pageHeight="827" background="none" math="0" shadow="0">
      <root>
        <mxCell id="0" />
        <mxCell id="1" parent="0" />
        <mxCell id="y8TPITcFyRDsTwTKgVO6-2" value="Заказ" style="swimlane;childLayout=stackLayout;horizontal=1;startSize=30;horizontalStack=0;rounded=1;fontSize=20;fontStyle=1;strokeWidth=2;resizeParent=0;resizeLast=1;shadow=0;dashed=0;align=center;labelBackgroundColor=#FFFFFF;labelBorderColor=none;fillColor=none;" parent="1" vertex="1">
          <mxGeometry x="560" y="1130" width="275" height="543" as="geometry" />
        </mxCell>
        <mxCell id="y8TPITcFyRDsTwTKgVO6-3" value="*Номер заказа&#xa;Дата создания&#xa;Статус&#xa;Сумма&#xa;&#xa;Дата доставки&#xa;Страна доставки&#xa;Индекс доставки&#xa;Город доставки&#xa;Улица доставки&#xa;Дом доставки&#xa;&#xa;Идентификатор пользователя &#xa;Имя&#xa;Фамилия&#xa;Email&#xa;Телефон&#xa;&#xa;&#xa;Способ оплаты&#xa;Дата оплаты&#xa;Статус оплаты&#xa;Номер чека" style="align=left;strokeColor=none;fillColor=none;spacingLeft=4;fontSize=16;verticalAlign=top;resizable=0;rotatable=0;part=1;labelBackgroundColor=none;labelBorderColor=none;" parent="y8TPITcFyRDsTwTKgVO6-2" vertex="1">
          <mxGeometry y="30" width="275" height="513" as="geometry" />
        </mxCell>
        <mxCell id="y8TPITcFyRDsTwTKgVO6-6" value="Товары в заказе" style="swimlane;childLayout=stackLayout;horizontal=1;startSize=30;horizontalStack=0;rounded=1;fontSize=20;fontStyle=1;strokeWidth=2;resizeParent=0;resizeLast=1;shadow=0;dashed=0;align=center;labelBackgroundColor=#FFFFFF;labelBorderColor=none;" parent="1" vertex="1">
          <mxGeometry x="1070" y="1210" width="275" height="100" as="geometry" />
        </mxCell>
        <mxCell id="y8TPITcFyRDsTwTKgVO6-7" value="*Номер заказа&#xa;*Артикул товара&#xa;Количество" style="align=left;strokeColor=none;fillColor=none;spacingLeft=4;fontSize=16;verticalAlign=top;resizable=0;rotatable=0;part=1;labelBackgroundColor=none;labelBorderColor=none;" parent="y8TPITcFyRDsTwTKgVO6-6" vertex="1">
          <mxGeometry y="30" width="275" height="70" as="geometry" />
        </mxCell>
        <mxCell id="y8TPITcFyRDsTwTKgVO6-8" value="" style="edgeStyle=entityRelationEdgeStyle;fontSize=12;html=1;endArrow=ERoneToMany;startArrow=ERmandOne;rounded=0;entryX=0;entryY=0.25;entryDx=0;entryDy=0;exitX=0.987;exitY=0.438;exitDx=0;exitDy=0;exitPerimeter=0;strokeWidth=2;endSize=26;startSize=26;" parent="1" source="y8TPITcFyRDsTwTKgVO6-3" target="y8TPITcFyRDsTwTKgVO6-7" edge="1">
          <mxGeometry width="100" height="100" relative="1" as="geometry">
            <mxPoint x="585" y="1660" as="sourcePoint" />
            <mxPoint x="685" y="1560" as="targetPoint" />
          </mxGeometry>
        </mxCell>
        <mxCell id="y8TPITcFyRDsTwTKgVO6-9" value="" style="edgeStyle=entityRelationEdgeStyle;fontSize=12;html=1;endArrow=ERmandOne;startArrow=ERoneToMany;rounded=0;strokeWidth=2;endSize=26;startSize=26;entryX=0.005;entryY=0.459;entryDx=0;entryDy=0;startFill=0;endFill=0;exitX=0.987;exitY=0.393;exitDx=0;exitDy=0;exitPerimeter=0;entryPerimeter=0;" parent="1" source="EbgQNwcLGWtouwNml77--2" target="Q3r8ZCZ-O8uAp9FY0svf-3" edge="1">
          <mxGeometry width="100" height="100" relative="1" as="geometry">
            <mxPoint x="840" y="1160" as="sourcePoint" />
            <mxPoint x="1588.9" y="1259.25" as="targetPoint" />
          </mxGeometry>
        </mxCell>
        <mxCell id="y8TPITcFyRDsTwTKgVO6-22" value="&lt;b style=&quot;font-family: Helvetica; font-size: 42px; font-style: normal; font-variant-ligatures: normal; font-variant-caps: normal; letter-spacing: normal; orphans: 2; text-align: center; text-indent: 0px; text-transform: none; widows: 2; word-spacing: 0px; -webkit-text-stroke-width: 0px; background-color: rgb(248, 249, 250); text-decoration-thickness: initial; text-decoration-style: initial; text-decoration-color: initial;&quot;&gt;Логическая ER-модель в 3 НФ&lt;/b&gt;" style="text;whiteSpace=wrap;html=1;fontSize=20;fontColor=light-dark(#000000,transparent);" parent="1" vertex="1">
          <mxGeometry x="560" y="1025" width="1080" height="80" as="geometry" />
        </mxCell>
        <mxCell id="Q3r8ZCZ-O8uAp9FY0svf-2" value="Категория товара " style="swimlane;childLayout=stackLayout;horizontal=1;startSize=30;horizontalStack=0;rounded=1;fontSize=20;fontStyle=1;strokeWidth=2;resizeParent=0;resizeLast=1;shadow=0;dashed=0;align=center;labelBackgroundColor=#FFFFFF;labelBorderColor=none;" parent="1" vertex="1">
          <mxGeometry x="1950" y="1170" width="275" height="180" as="geometry" />
        </mxCell>
        <mxCell id="Q3r8ZCZ-O8uAp9FY0svf-3" value="* Категория" style="align=left;strokeColor=none;fillColor=none;spacingLeft=4;fontSize=16;verticalAlign=top;resizable=0;rotatable=0;part=1;labelBackgroundColor=none;labelBorderColor=none;" parent="Q3r8ZCZ-O8uAp9FY0svf-2" vertex="1">
          <mxGeometry y="30" width="275" height="150" as="geometry" />
        </mxCell>
        <mxCell id="EbgQNwcLGWtouwNml77--1" value="Товар" style="swimlane;childLayout=stackLayout;horizontal=1;startSize=30;horizontalStack=0;rounded=1;fontSize=20;fontStyle=1;strokeWidth=2;resizeParent=0;resizeLast=1;shadow=0;dashed=0;align=center;labelBackgroundColor=#FFFFFF;labelBorderColor=none;" parent="1" vertex="1">
          <mxGeometry x="1491" y="1180" width="275" height="180" as="geometry" />
        </mxCell>
        <mxCell id="EbgQNwcLGWtouwNml77--2" value="*Артикул&#xa;Название&#xa;Цена&#xa;Наличие&#xa;Категория товара" style="align=left;strokeColor=none;fillColor=none;spacingLeft=4;fontSize=16;verticalAlign=top;resizable=0;rotatable=0;part=1;labelBackgroundColor=none;labelBorderColor=none;" parent="EbgQNwcLGWtouwNml77--1" vertex="1">
          <mxGeometry y="30" width="275" height="150" as="geometry" />
        </mxCell>
        <mxCell id="EbgQNwcLGWtouwNml77--3" value="" style="endArrow=ERmandOne;html=1;rounded=0;entryX=0.001;entryY=0.464;entryDx=0;entryDy=0;exitX=0.995;exitY=0.567;exitDx=0;exitDy=0;entryPerimeter=0;strokeWidth=2;endSize=26;startSize=26;endFill=0;startArrow=ERoneToMany;startFill=0;exitPerimeter=0;" parent="1" source="y8TPITcFyRDsTwTKgVO6-7" target="EbgQNwcLGWtouwNml77--2" edge="1">
          <mxGeometry width="50" height="50" relative="1" as="geometry">
            <mxPoint x="920" y="800" as="sourcePoint" />
            <mxPoint x="970" y="750" as="targetPoint" />
          </mxGeometry>
        </mxCell>
        <mxCell id="Nt9z2lacnXNsd-MH4bbN-1" value="Состоит" style="text;strokeColor=none;align=center;fillColor=none;html=1;verticalAlign=middle;whiteSpace=wrap;rounded=0;fontSize=16;" parent="1" vertex="1">
          <mxGeometry x="950" y="1300" width="60" height="30" as="geometry" />
        </mxCell>
        <mxCell id="Nt9z2lacnXNsd-MH4bbN-3" value="Содержит&amp;nbsp;" style="text;strokeColor=none;align=center;fillColor=none;html=1;verticalAlign=middle;whiteSpace=wrap;rounded=0;fontSize=16;" parent="1" vertex="1">
          <mxGeometry x="1390" y="1280" width="60" height="30" as="geometry" />
        </mxCell>
        <mxCell id="Nt9z2lacnXNsd-MH4bbN-5" value="Содержит&amp;nbsp;" style="text;strokeColor=none;align=center;fillColor=none;html=1;verticalAlign=middle;whiteSpace=wrap;rounded=0;fontSize=16;" parent="1" vertex="1">
          <mxGeometry x="1800" y="1260" width="120" height="70" as="geometry" />
        </mxCell>
      </root>
    </mxGraphModel>
  </diagram>
</mxfile>
